<svg id="svg" version="1.1" xmlns="http://www.w3.org/2000/svg" xmlns:xlink="http://www.w3.org/1999/xlink" width="400" height="385.8546168958743" viewBox="0, 0, 400,385.8546168958743"><g id="svgg"><path id="path0" d="M142.085 47.142 C 136.882 47.300,112.384 47.433,87.645 47.437 C 62.905 47.442,41.839 47.455,40.830 47.468 C 39.516 47.484,38.996 47.645,38.996 48.037 C 38.996 48.338,38.779 48.664,38.514 48.761 C 38.127 48.903,38.127 49.041,38.514 49.450 C 38.779 49.731,38.996 50.448,38.996 51.042 C 38.996 51.637,39.170 52.124,39.382 52.124 C 39.595 52.124,39.768 52.392,39.768 52.720 C 39.768 53.048,40.210 53.758,40.749 54.298 C 41.288 54.837,42.024 55.958,42.385 56.790 C 42.745 57.621,43.172 58.301,43.334 58.301 C 43.497 58.301,43.629 58.562,43.629 58.880 C 43.629 59.199,43.803 59.459,44.015 59.459 C 44.228 59.459,44.402 59.807,44.402 60.232 C 44.402 60.656,44.575 61.004,44.788 61.004 C 45.000 61.004,45.174 61.313,45.174 61.691 C 45.174 62.069,45.521 62.628,45.946 62.934 C 46.371 63.240,46.718 63.800,46.718 64.178 C 46.718 64.556,46.892 64.865,47.104 64.865 C 47.317 64.865,47.490 65.093,47.490 65.371 C 47.490 65.650,47.838 66.251,48.263 66.706 C 48.687 67.162,49.035 67.803,49.035 68.131 C 49.035 68.458,49.208 68.726,49.421 68.726 C 49.633 68.726,49.807 69.059,49.807 69.466 C 49.807 69.873,49.937 70.264,50.097 70.335 C 50.256 70.405,50.812 71.245,51.332 72.201 C 51.852 73.156,52.420 74.112,52.592 74.324 C 53.382 75.295,54.826 77.677,54.826 78.009 C 54.826 78.212,55.000 78.378,55.212 78.378 C 55.425 78.378,55.598 78.726,55.598 79.151 C 55.598 79.575,55.772 79.923,55.985 79.923 C 56.197 79.923,56.371 80.270,56.371 80.695 C 56.371 81.120,56.544 81.467,56.757 81.467 C 56.969 81.467,57.143 81.695,57.143 81.974 C 57.143 82.252,57.490 82.853,57.915 83.309 C 58.340 83.765,58.687 84.405,58.687 84.733 C 58.687 85.060,58.861 85.328,59.073 85.328 C 59.286 85.328,59.459 85.589,59.459 85.907 C 59.459 86.226,59.633 86.486,59.846 86.486 C 60.058 86.486,60.232 86.801,60.232 87.186 C 60.232 87.571,60.579 88.258,61.004 88.714 C 61.429 89.170,61.776 89.811,61.776 90.138 C 61.776 90.466,61.950 90.734,62.162 90.734 C 62.375 90.734,62.548 91.001,62.548 91.329 C 62.548 91.656,62.896 92.297,63.320 92.753 C 63.745 93.209,64.093 93.810,64.093 94.088 C 64.093 94.367,64.266 94.595,64.479 94.595 C 64.691 94.595,64.865 94.862,64.865 95.190 C 64.865 95.517,65.212 96.158,65.637 96.614 C 66.062 97.070,66.409 97.671,66.409 97.949 C 66.409 98.228,66.583 98.456,66.795 98.456 C 67.008 98.456,67.181 98.682,67.181 98.958 C 67.181 99.668,68.090 101.538,68.436 101.541 C 68.596 101.543,68.726 101.791,68.726 102.091 C 68.726 102.392,68.856 102.696,69.015 102.767 C 69.276 102.883,70.442 104.913,71.583 107.236 C 71.816 107.713,72.138 108.103,72.297 108.105 C 72.457 108.107,72.587 108.296,72.587 108.525 C 72.587 108.755,73.165 109.841,73.871 110.938 C 74.577 112.036,75.744 113.933,76.462 115.154 C 77.181 116.375,77.906 117.375,78.074 117.375 C 78.241 117.375,78.378 117.722,78.378 118.147 C 78.378 118.571,78.552 118.919,78.764 118.919 C 78.977 118.919,79.151 119.266,79.151 119.691 C 79.151 120.116,79.324 120.463,79.537 120.463 C 79.749 120.463,79.923 120.724,79.923 121.042 C 79.923 121.361,80.097 121.622,80.309 121.622 C 80.521 121.622,80.695 121.969,80.695 122.394 C 80.695 122.819,80.836 123.166,81.009 123.166 C 81.182 123.166,81.562 123.774,81.853 124.517 C 82.145 125.261,82.525 125.869,82.698 125.869 C 82.870 125.869,83.012 126.129,83.012 126.448 C 83.012 126.766,83.185 127.027,83.398 127.027 C 83.610 127.027,83.784 127.295,83.784 127.622 C 83.784 127.950,84.131 128.591,84.556 129.046 C 84.981 129.502,85.328 130.103,85.328 130.382 C 85.328 130.660,85.502 130.888,85.714 130.888 C 85.927 130.888,86.100 131.236,86.100 131.660 C 86.100 132.085,86.274 132.432,86.486 132.432 C 86.699 132.432,86.873 132.660,86.873 132.939 C 86.873 133.217,87.220 133.818,87.645 134.274 C 88.069 134.730,88.417 135.371,88.417 135.698 C 88.417 136.026,88.591 136.293,88.803 136.293 C 89.015 136.293,89.189 136.521,89.189 136.800 C 89.189 137.078,89.537 137.679,89.961 138.135 C 90.386 138.591,90.734 139.232,90.734 139.559 C 90.734 139.887,90.907 140.154,91.120 140.154 C 91.332 140.154,91.506 140.502,91.506 140.927 C 91.506 141.351,91.652 141.699,91.831 141.699 C 92.010 141.699,92.568 142.524,93.071 143.533 C 93.574 144.542,94.470 146.093,95.062 146.981 C 95.654 147.868,96.139 148.696,96.139 148.821 C 96.139 149.168,98.996 153.458,99.324 153.604 C 99.484 153.674,99.614 154.065,99.614 154.472 C 99.614 154.879,99.788 155.212,100.000 155.212 C 100.212 155.212,100.386 155.521,100.386 155.899 C 100.386 156.277,100.734 156.837,101.158 157.143 C 101.583 157.449,101.931 158.009,101.931 158.386 C 101.931 158.764,102.104 159.073,102.317 159.073 C 102.529 159.073,102.703 159.382,102.703 159.760 C 102.703 160.138,103.050 160.698,103.475 161.004 C 103.900 161.310,104.247 161.778,104.247 162.044 C 104.247 162.310,104.689 163.271,105.229 164.179 C 105.770 165.087,106.311 166.134,106.433 166.506 C 106.554 166.877,106.807 167.181,106.995 167.181 C 107.182 167.181,107.336 167.409,107.336 167.688 C 107.336 167.966,107.683 168.567,108.108 169.023 C 108.533 169.479,108.880 170.120,108.880 170.447 C 108.880 170.775,109.054 171.042,109.266 171.042 C 109.479 171.042,109.653 171.390,109.653 171.815 C 109.653 172.239,109.826 172.587,110.039 172.587 C 110.251 172.587,110.425 172.815,110.425 173.093 C 110.425 173.372,110.772 173.973,111.197 174.428 C 111.622 174.884,111.969 175.511,111.969 175.820 C 111.969 176.130,112.099 176.441,112.259 176.512 C 112.418 176.583,112.967 177.466,113.478 178.475 C 113.989 179.484,114.554 180.309,114.733 180.309 C 114.911 180.309,115.058 180.656,115.058 181.081 C 115.058 181.506,115.202 181.853,115.379 181.853 C 115.555 181.853,115.946 182.331,116.247 182.915 C 116.548 183.499,116.891 184.064,117.009 184.170 C 117.128 184.276,117.615 185.145,118.092 186.100 C 119.105 188.129,119.595 188.975,120.670 190.549 C 121.103 191.181,121.697 192.177,121.990 192.761 C 122.284 193.345,122.669 193.822,122.845 193.822 C 123.022 193.822,123.166 194.170,123.166 194.595 C 123.166 195.019,123.296 195.368,123.456 195.370 C 123.781 195.373,124.710 197.225,124.710 197.868 C 124.710 198.098,125.058 198.536,125.483 198.842 C 125.907 199.148,126.255 199.628,126.255 199.908 C 126.255 200.189,126.602 200.791,127.027 201.247 C 127.452 201.703,127.799 202.304,127.799 202.582 C 127.799 202.861,127.973 203.089,128.185 203.089 C 128.398 203.089,128.571 203.436,128.571 203.861 C 128.571 204.286,128.745 204.633,128.958 204.633 C 129.170 204.633,129.344 204.981,129.344 205.405 C 129.344 205.830,129.491 206.178,129.672 206.178 C 129.853 206.178,130.574 207.307,131.274 208.687 C 131.975 210.068,132.696 211.197,132.876 211.197 C 133.057 211.197,133.205 211.458,133.205 211.776 C 133.205 212.095,133.378 212.355,133.591 212.355 C 133.803 212.355,133.977 212.670,133.977 213.055 C 133.977 213.439,134.324 214.127,134.749 214.583 C 135.174 215.039,135.521 215.680,135.521 216.007 C 135.521 216.334,135.695 216.602,135.907 216.602 C 136.120 216.602,136.293 216.950,136.293 217.375 C 136.293 217.799,136.467 218.147,136.680 218.147 C 136.892 218.147,137.066 218.375,137.066 218.653 C 137.066 218.932,137.413 219.532,137.838 219.988 C 138.263 220.444,138.610 221.085,138.610 221.412 C 138.610 221.740,138.754 222.008,138.930 222.008 C 139.106 222.008,139.657 222.876,140.154 223.938 C 140.652 225.000,141.172 225.869,141.310 225.869 C 141.449 225.869,141.952 226.650,142.429 227.605 C 142.906 228.560,143.502 229.566,143.752 229.840 C 144.448 230.600,145.174 231.977,145.174 232.535 C 145.174 232.810,145.521 233.285,145.946 233.591 C 146.371 233.897,146.718 234.456,146.718 234.834 C 146.718 235.212,146.892 235.521,147.104 235.521 C 147.317 235.521,147.490 235.830,147.490 236.208 C 147.490 236.586,147.838 237.146,148.263 237.452 C 148.687 237.758,149.035 238.317,149.035 238.695 C 149.035 239.073,149.208 239.382,149.421 239.382 C 149.633 239.382,149.807 239.691,149.807 240.069 C 149.807 240.447,150.154 241.007,150.579 241.313 C 151.004 241.619,151.351 242.178,151.351 242.556 C 151.351 242.934,151.525 243.243,151.737 243.243 C 151.950 243.243,152.124 243.511,152.124 243.839 C 152.124 244.166,152.471 244.807,152.896 245.263 C 153.320 245.719,153.668 246.319,153.668 246.598 C 153.668 246.876,153.842 247.104,154.054 247.104 C 154.266 247.104,154.440 247.452,154.440 247.876 C 154.440 248.301,154.589 248.649,154.770 248.649 C 154.952 248.649,155.846 250.125,156.757 251.931 C 157.668 253.736,158.562 255.212,158.743 255.212 C 158.925 255.212,159.073 255.560,159.073 255.985 C 159.073 256.409,159.204 256.757,159.364 256.757 C 159.523 256.757,160.084 257.582,160.609 258.591 C 161.134 259.599,161.655 260.512,161.767 260.618 C 161.878 260.724,162.385 261.593,162.894 262.548 C 163.402 263.504,164.227 264.839,164.728 265.515 C 165.228 266.191,165.637 266.891,165.637 267.070 C 165.637 267.250,165.985 267.648,166.409 267.954 C 166.834 268.260,167.181 268.727,167.181 268.992 C 167.181 269.258,167.529 270.093,167.954 270.849 C 168.378 271.606,168.726 272.480,168.726 272.792 C 168.726 273.104,168.900 273.359,169.112 273.359 C 169.324 273.359,169.498 273.620,169.498 273.938 C 169.498 274.257,169.672 274.517,169.884 274.517 C 170.097 274.517,170.270 274.764,170.270 275.064 C 170.270 275.365,170.401 275.669,170.560 275.740 C 170.719 275.811,171.268 276.694,171.779 277.703 C 172.290 278.711,172.855 279.537,173.034 279.537 C 173.213 279.537,173.359 279.884,173.359 280.309 C 173.359 280.734,173.533 281.081,173.745 281.081 C 173.958 281.081,174.131 281.309,174.131 281.587 C 174.131 281.866,174.479 282.467,174.903 282.923 C 175.328 283.379,175.676 284.019,175.676 284.347 C 175.676 284.674,175.849 284.942,176.062 284.942 C 176.274 284.942,176.448 285.251,176.448 285.629 C 176.448 286.007,176.795 286.566,177.220 286.873 C 177.645 287.179,177.992 287.738,177.992 288.116 C 177.992 288.494,178.166 288.803,178.378 288.803 C 178.591 288.803,178.764 289.151,178.764 289.575 C 178.764 290.000,178.918 290.347,179.106 290.347 C 179.293 290.347,179.546 290.652,179.668 291.023 C 179.789 291.395,180.425 292.568,181.081 293.629 C 181.737 294.691,182.373 295.864,182.495 296.236 C 182.616 296.607,182.849 296.911,183.012 296.911 C 183.174 296.911,183.414 297.215,183.543 297.587 C 183.839 298.436,185.202 300.856,186.584 302.985 C 187.168 303.883,187.645 304.757,187.645 304.926 C 187.645 305.096,187.992 305.485,188.417 305.792 C 188.842 306.098,189.189 306.657,189.189 307.035 C 189.189 307.413,189.363 307.722,189.575 307.722 C 189.788 307.722,189.961 308.031,189.961 308.409 C 189.961 308.787,190.309 309.346,190.734 309.653 C 191.158 309.959,191.506 310.518,191.506 310.896 C 191.506 311.274,191.680 311.583,191.892 311.583 C 192.104 311.583,192.282 311.800,192.287 312.066 C 192.291 312.331,192.635 312.983,193.050 313.514 C 193.465 314.044,193.809 314.783,193.814 315.154 C 193.819 315.526,193.996 315.830,194.208 315.830 C 194.421 315.830,194.595 316.058,194.595 316.336 C 194.595 316.615,194.942 317.216,195.367 317.672 C 195.792 318.128,196.139 318.768,196.139 319.096 C 196.139 319.423,196.313 319.691,196.525 319.691 C 196.737 319.691,196.911 319.919,196.911 320.197 C 196.911 320.476,197.259 321.077,197.683 321.533 C 198.108 321.989,198.456 322.629,198.456 322.957 C 198.456 323.284,198.629 323.552,198.842 323.552 C 199.054 323.552,199.228 323.861,199.228 324.239 C 199.228 324.617,199.575 325.177,200.000 325.483 C 200.425 325.789,200.772 326.348,200.772 326.726 C 200.772 327.104,200.946 327.413,201.158 327.413 C 201.371 327.413,201.544 327.722,201.544 328.100 C 201.544 328.478,201.892 329.038,202.317 329.344 C 202.741 329.650,203.089 330.209,203.089 330.587 C 203.089 330.965,203.263 331.274,203.475 331.274 C 203.687 331.274,203.861 331.622,203.861 332.046 C 203.861 332.471,204.035 332.819,204.247 332.819 C 204.459 332.819,204.633 333.166,204.633 333.591 C 204.633 334.015,204.807 334.363,205.019 334.363 C 205.232 334.363,205.405 334.696,205.405 335.103 C 205.405 335.510,205.562 335.901,205.754 335.972 C 206.105 336.102,207.961 339.203,209.182 341.699 C 209.545 342.442,210.105 343.311,210.426 343.629 C 210.747 343.948,211.254 344.686,211.554 345.270 C 212.079 346.292,213.127 346.742,213.127 345.946 C 213.127 345.734,213.480 345.560,213.912 345.560 C 214.343 345.560,214.812 345.256,214.954 344.884 C 215.096 344.513,215.525 343.872,215.907 343.460 C 216.289 343.048,216.602 342.484,216.602 342.205 C 216.602 341.927,216.751 341.699,216.934 341.699 C 217.116 341.699,218.183 339.875,219.305 337.645 C 220.427 335.415,221.494 333.591,221.676 333.591 C 221.859 333.591,222.008 333.243,222.008 332.819 C 222.008 332.394,222.181 332.046,222.394 332.046 C 222.606 332.046,222.780 331.778,222.780 331.451 C 222.780 331.124,223.127 330.483,223.552 330.027 C 223.977 329.571,224.324 328.970,224.324 328.692 C 224.324 328.413,224.498 328.185,224.710 328.185 C 224.923 328.185,225.097 327.838,225.097 327.413 C 225.097 326.988,225.270 326.641,225.483 326.641 C 225.695 326.641,225.869 326.413,225.869 326.135 C 225.869 325.856,226.216 325.255,226.641 324.799 C 227.066 324.343,227.413 323.703,227.413 323.375 C 227.413 323.048,227.587 322.780,227.799 322.780 C 228.012 322.780,228.185 322.471,228.185 322.093 C 228.185 321.715,228.533 321.156,228.958 320.849 C 229.382 320.543,229.730 319.984,229.730 319.606 C 229.730 319.228,229.903 318.919,230.116 318.919 C 230.328 318.919,230.502 318.571,230.502 318.147 C 230.502 317.722,230.676 317.375,230.888 317.375 C 231.100 317.375,231.274 317.027,231.274 316.602 C 231.274 316.178,231.421 315.830,231.600 315.830 C 231.778 315.830,232.334 315.005,232.834 313.996 C 233.334 312.987,233.998 311.857,234.309 311.484 C 235.018 310.632,235.821 309.279,236.139 308.398 C 236.274 308.026,236.510 307.722,236.664 307.722 C 236.818 307.722,237.360 306.897,237.868 305.888 C 238.377 304.879,238.882 303.967,238.992 303.861 C 239.101 303.755,239.437 303.190,239.738 302.606 C 240.039 302.022,240.429 301.544,240.606 301.544 C 240.782 301.544,240.927 301.211,240.927 300.804 C 240.927 300.397,241.057 300.006,241.216 299.936 C 241.579 299.775,242.833 297.718,243.119 296.815 C 243.237 296.443,243.487 296.139,243.674 296.139 C 243.862 296.139,244.019 295.835,244.024 295.463 C 244.029 295.092,244.372 294.353,244.788 293.822 C 245.203 293.292,245.547 292.640,245.551 292.375 C 245.556 292.109,245.734 291.892,245.946 291.892 C 246.158 291.892,246.332 291.544,246.332 291.120 C 246.332 290.695,246.506 290.347,246.718 290.347 C 246.931 290.347,247.104 290.080,247.104 289.752 C 247.104 289.425,247.452 288.784,247.876 288.328 C 248.301 287.872,248.649 287.271,248.649 286.993 C 248.649 286.714,248.822 286.486,249.035 286.486 C 249.247 286.486,249.421 286.177,249.421 285.800 C 249.421 285.422,249.768 284.862,250.193 284.556 C 250.618 284.250,250.965 283.690,250.965 283.312 C 250.965 282.935,251.139 282.625,251.351 282.625 C 251.564 282.625,251.737 282.292,251.737 281.885 C 251.737 281.478,251.868 281.088,252.027 281.017 C 252.390 280.856,253.643 278.799,253.930 277.896 C 254.048 277.524,254.298 277.220,254.485 277.220 C 254.673 277.220,254.826 276.873,254.826 276.448 C 254.826 276.023,254.973 275.676,255.152 275.676 C 255.331 275.676,255.880 274.891,256.373 273.933 C 256.866 272.974,257.502 271.997,257.785 271.762 C 258.069 271.527,258.301 271.008,258.301 270.609 C 258.301 270.210,258.454 269.884,258.640 269.884 C 258.827 269.884,259.196 269.363,259.459 268.726 C 259.723 268.089,260.092 267.568,260.279 267.568 C 260.465 267.568,260.618 267.300,260.618 266.972 C 260.618 266.645,260.965 266.004,261.390 265.548 C 261.815 265.092,262.162 264.491,262.162 264.213 C 262.162 263.934,262.336 263.707,262.548 263.707 C 262.761 263.707,262.934 263.359,262.934 262.934 C 262.934 262.510,263.108 262.162,263.320 262.162 C 263.533 262.162,263.707 261.894,263.707 261.567 C 263.707 261.239,264.054 260.599,264.479 260.143 C 264.903 259.687,265.251 259.086,265.251 258.808 C 265.251 258.529,265.425 258.301,265.637 258.301 C 265.849 258.301,266.023 257.954,266.023 257.529 C 266.023 257.104,266.197 256.757,266.409 256.757 C 266.622 256.757,266.795 256.496,266.795 256.178 C 266.795 255.859,266.969 255.598,267.181 255.598 C 267.394 255.598,267.568 255.251,267.568 254.826 C 267.568 254.402,267.741 254.054,267.954 254.054 C 268.166 254.054,268.340 253.707,268.340 253.282 C 268.340 252.857,268.481 252.510,268.654 252.510 C 268.827 252.510,269.206 251.902,269.498 251.158 C 269.790 250.415,270.170 249.807,270.342 249.807 C 270.515 249.807,270.656 249.546,270.656 249.228 C 270.656 248.909,270.830 248.649,271.042 248.649 C 271.255 248.649,271.429 248.301,271.429 247.876 C 271.429 247.452,271.602 247.104,271.815 247.104 C 272.027 247.104,272.201 246.795,272.201 246.417 C 272.201 246.039,272.548 245.480,272.973 245.174 C 273.398 244.868,273.745 244.388,273.745 244.107 C 273.745 243.827,274.093 243.224,274.517 242.768 C 275.319 241.907,275.578 240.154,274.903 240.154 C 274.691 240.154,274.517 240.502,274.517 240.927 C 274.517 241.351,274.387 241.700,274.228 241.702 C 273.903 241.705,272.973 243.557,272.973 244.200 C 272.973 244.430,272.625 244.868,272.201 245.174 C 271.776 245.480,271.429 246.039,271.429 246.417 C 271.429 246.795,271.255 247.104,271.042 247.104 C 270.830 247.104,270.656 247.452,270.656 247.876 C 270.656 248.301,270.483 248.649,270.270 248.649 C 270.058 248.649,269.884 248.909,269.884 249.228 C 269.884 249.546,269.710 249.807,269.498 249.807 C 269.286 249.807,269.112 250.154,269.112 250.579 C 269.112 251.004,268.968 251.351,268.791 251.351 C 268.615 251.351,268.224 251.829,267.923 252.413 C 267.622 252.997,267.289 253.562,267.182 253.668 C 266.988 253.861,265.513 256.568,264.711 258.202 C 264.477 258.678,264.155 259.069,263.996 259.070 C 263.837 259.072,263.707 259.406,263.707 259.813 C 263.707 260.220,263.567 260.611,263.397 260.682 C 263.088 260.811,259.459 266.649,259.459 267.018 C 259.459 267.126,259.112 267.587,258.687 268.043 C 258.263 268.498,257.915 269.099,257.915 269.378 C 257.915 269.656,257.741 269.884,257.529 269.884 C 257.317 269.884,257.143 270.232,257.143 270.656 C 257.143 271.081,256.969 271.429,256.757 271.429 C 256.544 271.429,256.371 271.689,256.371 272.008 C 256.371 272.326,256.229 272.587,256.057 272.587 C 255.884 272.587,255.504 273.195,255.212 273.938 C 254.921 274.681,254.583 275.290,254.462 275.290 C 254.341 275.290,253.997 275.854,253.697 276.544 C 253.396 277.235,253.050 277.886,252.927 277.992 C 252.569 278.301,251.385 280.376,250.669 281.950 C 250.307 282.746,249.878 283.398,249.716 283.398 C 249.554 283.398,249.421 283.658,249.421 283.977 C 249.421 284.295,249.280 284.556,249.107 284.556 C 248.934 284.556,248.554 285.164,248.263 285.907 C 247.971 286.651,247.611 287.259,247.463 287.259 C 247.315 287.259,247.098 287.563,246.980 287.934 C 246.777 288.573,245.726 290.417,245.063 291.296 C 244.559 291.965,240.523 298.925,239.680 300.579 C 239.247 301.429,238.785 302.210,238.655 302.317 C 238.524 302.423,238.200 302.901,237.934 303.378 C 237.669 303.856,237.235 304.638,236.969 305.116 C 236.704 305.594,236.400 306.071,236.293 306.178 C 236.113 306.358,235.596 307.238,234.592 309.073 C 234.360 309.498,234.083 309.932,233.977 310.039 C 233.796 310.219,233.280 311.099,232.276 312.934 C 232.043 313.359,231.766 313.793,231.660 313.900 C 231.554 314.006,231.099 314.788,230.650 315.637 C 230.201 316.486,229.419 317.963,228.913 318.919 C 228.406 319.875,227.905 320.743,227.799 320.849 C 227.610 321.039,227.347 321.489,225.791 324.281 C 225.364 325.048,224.878 325.849,224.710 326.062 C 224.543 326.274,224.063 327.056,223.643 327.799 C 223.222 328.542,221.770 330.979,220.416 333.215 C 219.062 335.450,217.698 337.796,217.386 338.427 C 217.074 339.059,216.374 340.270,215.830 341.120 C 215.286 341.969,214.600 343.142,214.305 343.726 C 213.565 345.192,212.528 345.075,211.750 343.436 C 211.397 342.693,210.955 342.085,210.767 342.085 C 210.579 342.085,210.425 341.737,210.425 341.313 C 210.425 340.888,210.271 340.541,210.084 340.541 C 209.896 340.541,209.646 340.236,209.528 339.865 C 209.293 339.124,208.054 336.987,207.681 336.680 C 207.552 336.573,206.300 334.402,204.899 331.853 C 203.498 329.305,202.170 327.010,201.948 326.754 C 201.726 326.497,201.544 326.177,201.544 326.041 C 201.544 325.906,201.217 325.334,200.817 324.770 C 200.418 324.206,199.739 323.117,199.309 322.350 C 197.666 319.415,197.485 319.107,197.297 318.919 C 197.079 318.700,196.367 317.472,195.228 315.347 C 194.801 314.551,194.310 313.900,194.137 313.900 C 193.964 313.900,193.822 313.552,193.822 313.127 C 193.822 312.703,193.649 312.355,193.436 312.355 C 193.224 312.355,193.050 312.008,193.050 311.583 C 193.050 311.158,192.897 310.811,192.709 310.811 C 192.522 310.811,192.272 310.507,192.154 310.135 C 191.944 309.474,190.729 307.332,190.347 306.950 C 189.966 306.568,188.751 304.426,188.541 303.764 C 188.423 303.393,188.173 303.089,187.986 303.089 C 187.798 303.089,187.645 302.741,187.645 302.317 C 187.645 301.892,187.491 301.544,187.304 301.544 C 187.116 301.544,186.863 301.240,186.742 300.869 C 186.489 300.097,184.815 297.212,183.738 295.693 C 183.339 295.130,183.012 294.570,183.012 294.451 C 183.012 294.331,182.230 293.024,181.274 291.547 C 180.319 290.070,179.537 288.779,179.537 288.678 C 179.537 288.578,178.842 287.352,177.992 285.954 C 177.143 284.556,176.448 283.235,176.448 283.019 C 176.448 282.802,176.294 282.625,176.107 282.625 C 175.919 282.625,175.663 282.321,175.538 281.950 C 175.305 281.256,174.659 280.115,172.973 277.413 C 171.286 274.711,170.641 273.570,170.408 272.876 C 170.283 272.505,170.027 272.201,169.839 272.201 C 169.652 272.201,169.498 271.853,169.498 271.429 C 169.498 271.004,169.352 270.656,169.173 270.656 C 168.994 270.656,168.429 269.831,167.918 268.822 C 167.407 267.814,166.858 266.931,166.699 266.860 C 166.540 266.789,166.409 266.478,166.409 266.168 C 166.409 265.858,166.062 265.232,165.637 264.776 C 165.212 264.320,164.865 263.719,164.865 263.441 C 164.865 263.162,164.691 262.934,164.479 262.934 C 164.266 262.934,164.093 262.587,164.093 262.162 C 164.093 261.737,163.919 261.390,163.707 261.390 C 163.494 261.390,163.320 261.162,163.320 260.884 C 163.320 260.605,162.973 260.004,162.548 259.548 C 162.124 259.093,161.776 258.644,161.776 258.551 C 161.776 258.459,160.564 256.343,159.083 253.850 C 157.601 251.356,156.287 248.992,156.161 248.596 C 156.035 248.200,155.770 247.876,155.572 247.876 C 155.374 247.876,155.212 247.529,155.212 247.104 C 155.212 246.680,155.082 246.332,154.922 246.332 C 154.762 246.332,154.202 245.507,153.677 244.498 C 153.151 243.489,152.630 242.577,152.519 242.471 C 152.142 242.112,150.919 239.966,150.703 239.286 C 150.586 238.914,150.336 238.610,150.148 238.610 C 149.960 238.610,149.807 238.263,149.807 237.838 C 149.807 237.413,149.661 237.066,149.482 237.066 C 149.303 237.066,148.738 236.240,148.227 235.232 C 147.716 234.223,147.167 233.340,147.008 233.269 C 146.848 233.198,146.718 232.894,146.718 232.593 C 146.718 232.292,146.544 232.046,146.332 232.046 C 146.120 232.046,145.946 231.699,145.946 231.274 C 145.946 230.849,145.772 230.502,145.560 230.502 C 145.347 230.502,145.174 230.274,145.174 229.996 C 145.174 229.717,144.826 229.116,144.402 228.660 C 143.977 228.205,143.629 227.564,143.629 227.236 C 143.629 226.909,143.476 226.641,143.288 226.641 C 143.101 226.641,142.845 226.337,142.720 225.965 C 142.595 225.594,142.179 224.768,141.796 224.131 C 141.414 223.494,140.592 222.104,139.970 221.042 C 139.349 219.981,138.745 219.025,138.629 218.919 C 138.409 218.719,138.033 218.076,136.390 215.088 C 135.855 214.116,135.286 213.147,135.125 212.934 C 134.963 212.722,134.482 211.921,134.054 211.153 C 132.499 208.361,132.236 207.912,132.046 207.722 C 131.688 207.363,130.483 205.221,129.820 203.764 C 129.458 202.968,129.029 202.317,128.866 202.317 C 128.704 202.317,128.571 202.056,128.571 201.737 C 128.571 201.419,128.430 201.158,128.257 201.158 C 128.085 201.158,127.705 200.550,127.413 199.807 C 127.122 199.064,126.774 198.456,126.641 198.456 C 126.508 198.456,126.160 197.847,125.869 197.104 C 125.577 196.361,125.197 195.753,125.024 195.753 C 124.852 195.753,124.710 195.492,124.710 195.174 C 124.710 194.855,124.537 194.595,124.324 194.595 C 124.112 194.595,123.934 194.291,123.930 193.919 C 123.925 193.547,123.581 192.809,123.166 192.278 C 122.751 191.747,122.407 191.096,122.402 190.830 C 122.398 190.565,122.220 190.347,122.008 190.347 C 121.795 190.347,121.622 190.157,121.622 189.924 C 121.622 189.692,121.294 189.040,120.895 188.477 C 120.495 187.913,119.816 186.824,119.387 186.057 C 117.743 183.122,117.562 182.813,117.375 182.625 C 117.132 182.383,116.107 180.668,114.753 178.240 C 114.177 177.208,112.621 174.527,111.293 172.282 C 109.966 170.037,108.880 168.073,108.880 167.916 C 108.880 167.760,108.750 167.574,108.591 167.503 C 108.431 167.432,107.883 166.549,107.372 165.541 C 106.861 164.532,106.296 163.707,106.117 163.707 C 105.938 163.707,105.792 163.359,105.792 162.934 C 105.792 162.510,105.618 162.162,105.405 162.162 C 105.193 162.162,105.019 161.894,105.019 161.567 C 105.019 161.239,104.672 160.599,104.247 160.143 C 103.822 159.687,103.475 159.086,103.475 158.808 C 103.475 158.529,103.301 158.301,103.089 158.301 C 102.876 158.301,102.703 157.954,102.703 157.529 C 102.703 157.104,102.549 156.757,102.362 156.757 C 102.174 156.757,101.924 156.453,101.806 156.081 C 101.596 155.420,100.382 153.278,100.000 152.896 C 99.641 152.537,98.436 150.395,97.774 148.938 C 97.411 148.142,96.982 147.490,96.820 147.490 C 96.658 147.490,96.525 147.300,96.525 147.067 C 96.525 146.835,96.198 146.183,95.798 145.619 C 95.081 144.609,94.243 143.176,92.375 139.768 C 91.851 138.813,91.030 137.423,90.551 136.680 C 89.085 134.405,86.100 129.329,86.100 129.110 C 86.100 128.996,85.617 128.177,85.027 127.290 C 84.436 126.402,83.712 125.198,83.417 124.614 C 83.122 124.030,82.737 123.552,82.560 123.552 C 82.384 123.552,82.239 123.289,82.239 122.968 C 82.239 122.432,81.542 120.924,81.081 120.463 C 80.699 120.081,79.485 117.940,79.275 117.278 C 79.157 116.906,78.939 116.602,78.792 116.602 C 78.644 116.602,78.284 115.994,77.992 115.251 C 77.701 114.508,77.353 113.900,77.220 113.900 C 77.087 113.900,76.740 113.292,76.448 112.548 C 76.156 111.805,75.776 111.197,75.604 111.197 C 75.431 111.197,75.290 111.011,75.290 110.784 C 75.290 110.557,74.768 109.613,74.131 108.687 C 73.494 107.761,72.973 106.916,72.973 106.809 C 72.973 106.702,72.471 105.778,71.859 104.755 C 66.130 95.197,64.865 93.010,64.865 92.670 C 64.865 92.455,64.733 92.278,64.571 92.278 C 64.410 92.278,63.671 91.105,62.930 89.672 C 62.189 88.238,61.453 87.008,61.293 86.937 C 61.134 86.866,61.004 86.577,61.004 86.293 C 61.004 86.010,60.874 85.721,60.714 85.650 C 60.454 85.534,59.288 83.504,58.147 81.181 C 57.913 80.704,57.592 80.314,57.432 80.312 C 57.273 80.310,57.143 80.041,57.143 79.714 C 57.143 79.386,56.795 78.745,56.371 78.289 C 55.946 77.834,55.598 77.233,55.598 76.954 C 55.598 76.676,55.425 76.448,55.212 76.448 C 55.000 76.448,54.826 76.100,54.826 75.676 C 54.826 75.251,54.673 74.903,54.485 74.903 C 54.298 74.903,54.048 74.599,53.930 74.228 C 53.720 73.566,52.505 71.424,52.124 71.042 C 52.017 70.936,51.505 70.068,50.984 69.112 C 50.464 68.156,49.892 67.201,49.713 66.988 C 49.076 66.233,43.629 56.708,43.629 56.349 C 43.629 56.149,43.476 55.985,43.288 55.985 C 43.101 55.985,42.848 55.681,42.726 55.309 C 42.605 54.937,41.972 53.764,41.321 52.703 C 40.670 51.641,40.023 50.512,39.884 50.193 C 39.745 49.875,39.450 49.493,39.229 49.345 C 38.032 48.548,44.444 48.456,101.079 48.456 L 162.711 48.456 163.588 49.807 C 164.071 50.550,164.642 51.368,164.858 51.625 C 165.074 51.881,165.251 52.359,165.251 52.686 C 165.251 53.014,165.404 53.282,165.592 53.282 C 165.780 53.282,166.030 53.586,166.147 53.958 C 166.370 54.658,167.600 56.805,167.974 57.143 C 168.091 57.249,168.486 57.979,168.852 58.766 C 169.218 59.552,169.730 60.421,169.990 60.696 C 170.250 60.972,170.827 61.892,171.273 62.741 C 172.399 64.891,173.392 66.582,175.238 69.498 C 176.112 70.878,177.277 72.856,177.828 73.892 C 178.378 74.929,179.162 76.135,179.569 76.571 C 179.976 77.008,180.313 77.637,180.317 77.969 C 180.322 78.300,180.666 79.006,181.081 79.537 C 181.496 80.068,181.840 80.644,181.845 80.818 C 181.849 80.993,182.346 81.861,182.949 82.749 C 183.551 83.637,184.289 84.928,184.587 85.618 C 184.886 86.308,185.229 86.873,185.350 86.873 C 185.471 86.873,185.809 87.481,186.100 88.224 C 186.392 88.967,186.740 89.575,186.873 89.575 C 187.006 89.575,187.353 90.183,187.645 90.927 C 187.936 91.670,188.316 92.278,188.489 92.278 C 188.662 92.278,188.803 92.539,188.803 92.857 C 188.803 93.176,188.977 93.436,189.189 93.436 C 189.402 93.436,189.575 93.784,189.575 94.208 C 189.575 94.633,189.720 94.981,189.896 94.981 C 190.073 94.981,190.464 95.458,190.765 96.042 C 191.066 96.626,192.138 98.464,193.147 100.125 C 194.155 101.786,194.981 103.202,194.981 103.270 C 194.981 103.339,196.588 106.063,198.552 109.323 C 200.516 112.583,202.384 115.772,202.702 116.409 C 203.020 117.046,203.368 117.654,203.474 117.761 C 203.856 118.141,205.071 120.283,205.281 120.946 C 205.399 121.318,205.617 121.622,205.764 121.622 C 205.912 121.622,206.272 122.230,206.564 122.973 C 206.855 123.716,207.203 124.324,207.336 124.324 C 207.469 124.324,207.816 124.932,208.108 125.676 C 208.400 126.419,208.759 127.027,208.907 127.027 C 209.055 127.027,209.279 127.331,209.404 127.703 C 209.640 128.404,210.597 130.109,211.702 131.794 C 212.483 132.986,213.746 135.194,214.828 137.259 C 215.273 138.108,215.737 138.890,215.859 138.996 C 215.981 139.102,216.502 139.971,217.017 140.927 C 217.532 141.882,218.051 142.751,218.170 142.857 C 218.288 142.963,218.827 143.832,219.366 144.788 C 219.905 145.743,221.068 147.695,221.949 149.124 C 222.831 150.554,223.552 151.900,223.552 152.117 C 223.552 152.333,223.706 152.510,223.893 152.510 C 224.081 152.510,224.331 152.814,224.449 153.185 C 224.658 153.847,225.873 155.989,226.255 156.371 C 226.361 156.477,226.839 157.302,227.317 158.205 C 227.794 159.107,228.576 160.584,229.054 161.486 C 229.532 162.389,230.053 163.185,230.212 163.256 C 230.372 163.327,230.502 163.631,230.502 163.932 C 230.502 164.233,230.643 164.479,230.816 164.479 C 230.989 164.479,231.369 165.087,231.660 165.830 C 231.952 166.573,232.299 167.181,232.432 167.181 C 232.566 167.181,232.913 167.790,233.205 168.533 C 233.496 169.276,233.876 169.884,234.049 169.884 C 234.222 169.884,234.363 170.145,234.363 170.463 C 234.363 170.782,234.504 171.042,234.677 171.042 C 234.850 171.042,235.230 171.651,235.521 172.394 C 235.813 173.137,236.150 173.745,236.271 173.745 C 236.392 173.745,236.738 174.310,237.040 175.000 C 237.341 175.690,238.122 177.058,238.775 178.039 C 239.427 179.021,240.247 180.324,240.597 180.935 C 240.946 181.546,242.174 183.610,243.325 185.521 C 244.476 187.432,245.666 189.561,245.969 190.251 C 246.272 190.941,246.652 191.506,246.812 191.506 C 246.973 191.506,247.104 191.692,247.104 191.919 C 247.104 192.146,247.625 193.090,248.263 194.015 C 248.900 194.941,249.421 195.885,249.421 196.112 C 249.421 196.339,249.551 196.526,249.710 196.526 C 249.870 196.527,250.434 197.482,250.965 198.649 C 251.496 199.815,252.061 200.770,252.220 200.771 C 252.379 200.772,252.510 201.033,252.510 201.351 C 252.510 201.670,252.683 201.931,252.896 201.931 C 253.108 201.931,253.282 202.278,253.282 202.703 C 253.282 203.127,253.456 203.475,253.668 203.475 C 253.880 203.475,254.054 203.703,254.054 203.981 C 254.054 204.260,254.402 204.861,254.826 205.316 C 255.251 205.772,255.598 206.413,255.598 206.741 C 255.598 207.068,255.772 207.336,255.985 207.336 C 256.197 207.336,256.371 207.597,256.371 207.915 C 256.371 208.234,256.512 208.494,256.685 208.494 C 256.857 208.494,257.237 209.102,257.529 209.846 C 257.821 210.589,258.180 211.197,258.328 211.197 C 258.476 211.197,258.694 211.501,258.811 211.873 C 259.021 212.534,260.236 214.676,260.618 215.058 C 260.724 215.164,261.044 215.666,261.330 216.173 C 261.615 216.679,262.154 217.635,262.527 218.296 C 263.324 219.708,265.072 222.387,265.632 223.053 C 265.847 223.310,266.023 223.683,266.023 223.882 C 266.023 224.082,266.718 225.389,267.568 226.788 C 268.417 228.186,269.112 229.430,269.112 229.552 C 269.112 229.855,271.549 232.979,271.911 233.140 C 272.070 233.211,272.201 233.522,272.201 233.832 C 272.201 234.142,272.548 234.768,272.973 235.224 C 273.398 235.680,273.745 236.336,273.745 236.683 C 273.745 237.029,274.195 237.704,274.745 238.182 L 275.745 239.052 275.493 238.155 C 275.108 236.784,274.423 235.521,274.066 235.521 C 273.890 235.521,273.745 235.253,273.745 234.926 C 273.745 234.599,273.398 233.958,272.973 233.502 C 272.548 233.046,272.201 232.445,272.201 232.167 C 272.201 231.888,272.027 231.660,271.815 231.660 C 271.602 231.660,271.429 231.351,271.429 230.973 C 271.429 230.595,271.081 230.036,270.656 229.730 C 270.232 229.424,269.884 228.864,269.884 228.486 C 269.884 228.108,269.710 227.799,269.498 227.799 C 269.286 227.799,269.112 227.490,269.112 227.112 C 269.112 226.734,268.764 226.175,268.340 225.869 C 267.915 225.563,267.568 225.003,267.568 224.625 C 267.568 224.247,267.419 223.938,267.237 223.938 C 267.056 223.938,266.162 222.461,265.251 220.656 C 264.340 218.851,263.446 217.375,263.265 217.375 C 263.083 217.375,262.934 217.027,262.934 216.602 C 262.934 216.178,262.761 215.830,262.548 215.830 C 262.336 215.830,262.162 215.644,262.162 215.417 C 262.162 215.190,261.641 214.246,261.004 213.320 C 260.367 212.395,259.846 211.529,259.846 211.396 C 259.846 211.264,259.064 209.958,258.108 208.494 C 257.153 207.030,256.371 205.688,256.371 205.511 C 256.371 205.334,256.023 204.939,255.598 204.633 C 255.174 204.327,254.826 203.767,254.826 203.390 C 254.826 203.012,254.653 202.703,254.440 202.703 C 254.228 202.703,254.054 202.477,254.054 202.201 C 254.054 201.490,253.146 199.621,252.799 199.617 C 252.640 199.615,252.510 199.353,252.510 199.035 C 252.510 198.716,252.336 198.456,252.124 198.456 C 251.911 198.456,251.737 198.108,251.737 197.683 C 251.737 197.259,251.584 196.911,251.396 196.911 C 251.209 196.911,250.959 196.607,250.841 196.236 C 250.631 195.573,249.416 193.430,249.034 193.050 C 248.928 192.944,248.594 192.379,248.293 191.795 C 247.992 191.211,247.602 190.734,247.425 190.734 C 247.249 190.734,247.104 190.471,247.104 190.149 C 247.104 189.613,246.406 188.104,245.945 187.645 C 245.839 187.539,245.505 186.974,245.204 186.390 C 244.903 185.806,244.513 185.328,244.336 185.328 C 244.160 185.328,244.015 184.995,244.015 184.588 C 244.015 184.181,243.885 183.790,243.726 183.719 C 243.363 183.558,242.110 181.502,241.823 180.598 C 241.705 180.227,241.455 179.923,241.268 179.923 C 241.080 179.923,240.927 179.575,240.927 179.151 C 240.927 178.726,240.773 178.378,240.586 178.378 C 240.398 178.378,240.145 178.074,240.023 177.703 C 239.795 177.006,238.989 175.589,236.061 170.739 C 235.127 169.192,234.363 167.797,234.363 167.639 C 234.363 167.481,234.015 167.101,233.591 166.795 C 233.166 166.489,232.819 165.968,232.819 165.637 C 232.819 165.306,232.471 164.785,232.046 164.479 C 231.622 164.173,231.274 163.613,231.274 163.235 C 231.274 162.857,231.100 162.548,230.888 162.548 C 230.676 162.548,230.502 162.201,230.502 161.776 C 230.502 161.351,230.328 161.004,230.116 161.004 C 229.903 161.004,229.730 160.656,229.730 160.232 C 229.730 159.807,229.598 159.459,229.438 159.459 C 229.277 159.459,228.900 158.895,228.600 158.205 C 228.300 157.514,227.951 156.863,227.825 156.757 C 227.699 156.651,227.180 155.738,226.672 154.730 C 226.163 153.721,225.601 152.896,225.422 152.896 C 225.243 152.896,225.097 152.548,225.097 152.124 C 225.097 151.699,224.943 151.351,224.755 151.351 C 224.568 151.351,224.318 151.047,224.200 150.676 C 223.984 149.996,222.761 147.849,222.384 147.490 C 222.273 147.384,221.752 146.472,221.227 145.463 C 220.701 144.455,220.141 143.629,219.981 143.629 C 219.822 143.629,219.691 143.282,219.691 142.857 C 219.691 142.432,219.538 142.085,219.352 142.085 C 219.165 142.085,218.797 141.564,218.533 140.927 C 218.269 140.290,217.921 139.768,217.759 139.768 C 217.597 139.768,217.368 139.464,217.249 139.093 C 216.731 137.465,212.506 130.462,211.873 130.180 C 211.713 130.109,211.583 129.718,211.583 129.311 C 211.583 128.904,211.409 128.571,211.197 128.571 C 210.985 128.571,210.811 128.344,210.811 128.065 C 210.811 127.787,210.463 127.186,210.039 126.730 C 209.614 126.274,209.266 125.633,209.266 125.306 C 209.266 124.978,209.093 124.710,208.880 124.710 C 208.668 124.710,208.494 124.363,208.494 123.938 C 208.494 123.514,208.320 123.166,208.108 123.166 C 207.896 123.166,207.722 122.938,207.722 122.660 C 207.722 122.381,207.375 121.780,206.950 121.324 C 206.525 120.869,206.178 120.266,206.178 119.986 C 206.178 119.705,205.830 119.225,205.405 118.919 C 204.981 118.613,204.633 118.053,204.633 117.675 C 204.633 117.298,204.459 116.988,204.247 116.988 C 204.035 116.988,203.861 116.641,203.861 116.216 C 203.861 115.792,203.730 115.444,203.569 115.444 C 203.409 115.444,203.032 114.879,202.731 114.189 C 202.431 113.499,202.085 112.847,201.961 112.741 C 201.699 112.516,200.959 111.237,199.836 109.073 C 199.395 108.224,198.948 107.442,198.842 107.336 C 198.736 107.230,198.431 106.752,198.166 106.274 C 197.901 105.796,197.466 105.014,197.201 104.537 C 196.935 104.059,196.629 103.581,196.520 103.475 C 196.411 103.369,195.906 102.457,195.397 101.448 C 194.889 100.439,194.327 99.614,194.148 99.614 C 193.969 99.614,193.822 99.266,193.822 98.842 C 193.822 98.417,193.649 98.069,193.436 98.069 C 193.224 98.069,193.050 97.887,193.050 97.663 C 193.050 97.159,189.561 91.747,189.122 91.570 C 188.947 91.499,188.803 91.108,188.803 90.701 C 188.803 90.294,188.629 89.961,188.417 89.961 C 188.205 89.961,188.031 89.614,188.031 89.189 C 188.031 88.764,187.857 88.417,187.645 88.417 C 187.432 88.417,187.259 88.156,187.259 87.838 C 187.259 87.519,187.117 87.259,186.945 87.259 C 186.772 87.259,186.392 86.651,186.100 85.907 C 185.809 85.164,185.456 84.556,185.317 84.556 C 185.177 84.556,184.645 83.731,184.134 82.722 C 183.623 81.713,183.074 80.830,182.915 80.759 C 182.756 80.689,182.625 80.312,182.625 79.923 C 182.625 79.533,182.495 79.157,182.336 79.086 C 181.973 78.925,180.720 76.869,180.433 75.965 C 180.315 75.594,180.065 75.290,179.878 75.290 C 179.690 75.290,179.537 74.942,179.537 74.517 C 179.537 74.093,179.384 73.745,179.197 73.745 C 179.010 73.745,178.210 72.437,177.420 70.838 C 176.630 69.239,175.783 67.718,175.538 67.459 C 175.293 67.200,174.675 66.163,174.165 65.154 C 173.655 64.146,173.091 63.320,172.912 63.320 C 172.733 63.320,172.587 62.987,172.587 62.580 C 172.587 62.173,172.457 61.782,172.297 61.712 C 171.914 61.541,170.722 59.535,170.214 58.205 C 169.991 57.621,169.673 57.143,169.507 57.143 C 169.341 57.143,168.990 56.622,168.726 55.985 C 168.462 55.347,168.093 54.826,167.907 54.826 C 167.720 54.826,167.568 54.517,167.568 54.139 C 167.568 53.761,167.220 53.202,166.795 52.896 C 166.371 52.590,166.023 52.063,166.023 51.725 C 166.023 51.387,165.676 50.738,165.251 50.282 C 164.826 49.826,164.479 49.299,164.479 49.111 C 164.479 48.352,162.986 47.490,161.672 47.490 C 160.905 47.490,160.170 47.317,160.039 47.104 C 159.779 46.685,156.926 46.691,142.085 47.142 M334.556 47.876 C 334.425 48.089,333.891 48.263,333.371 48.263 C 330.392 48.263,318.533 56.809,318.533 58.956 C 318.533 59.197,318.388 59.453,318.211 59.524 C 317.693 59.731,315.444 64.073,315.444 64.866 C 315.444 65.265,315.289 65.687,315.101 65.804 C 313.895 66.549,313.887 81.544,315.092 82.799 C 315.286 83.001,315.444 83.481,315.444 83.866 C 315.444 84.251,315.603 84.868,315.798 85.237 C 315.993 85.606,316.361 86.472,316.617 87.162 C 316.873 87.852,317.235 88.417,317.421 88.417 C 317.608 88.417,317.761 88.685,317.761 89.012 C 317.761 89.987,323.454 96.139,324.357 96.139 C 324.608 96.139,325.097 96.466,325.444 96.866 C 326.252 97.798,331.114 100.386,332.056 100.386 C 332.450 100.386,332.880 100.560,333.012 100.772 C 333.143 100.985,333.664 101.158,334.170 101.158 C 334.676 101.158,335.197 101.332,335.328 101.544 C 335.459 101.757,336.241 101.931,337.066 101.931 C 337.890 101.931,338.672 102.104,338.803 102.317 C 338.934 102.529,339.618 102.703,340.323 102.703 C 342.534 102.703,342.708 103.457,341.188 106.443 C 338.217 112.282,337.308 113.900,337.001 113.900 C 336.824 113.900,336.680 114.247,336.680 114.672 C 336.680 115.097,336.506 115.444,336.293 115.444 C 336.081 115.444,335.907 115.792,335.907 116.216 C 335.907 116.641,335.734 116.988,335.521 116.988 C 335.309 116.988,335.135 117.321,335.135 117.728 C 335.135 118.135,335.005 118.526,334.846 118.597 C 334.387 118.801,332.819 121.854,332.819 122.543 C 332.819 122.886,332.645 123.166,332.432 123.166 C 332.220 123.166,332.046 123.653,332.046 124.247 C 332.046 124.842,331.838 125.537,331.583 125.792 C 331.223 126.152,331.223 126.358,331.583 126.718 C 331.838 126.973,332.046 127.668,332.046 128.263 C 332.046 128.857,332.220 129.344,332.432 129.344 C 332.645 129.344,332.819 129.697,332.819 130.129 C 332.819 131.878,335.339 134.749,336.873 134.749 C 337.971 134.749,339.768 133.202,339.768 132.257 C 339.768 131.929,339.942 131.660,340.154 131.660 C 340.367 131.660,340.541 131.313,340.541 130.888 C 340.541 130.463,340.714 130.116,340.927 130.116 C 341.139 130.116,341.313 129.768,341.313 129.344 C 341.313 128.919,341.486 128.571,341.699 128.571 C 341.911 128.571,342.085 128.224,342.085 127.799 C 342.085 127.375,342.229 127.027,342.406 127.027 C 342.582 127.027,342.973 126.549,343.275 125.965 C 343.576 125.381,344.126 124.567,344.498 124.155 C 344.870 123.743,345.174 123.253,345.174 123.064 C 345.174 122.876,345.956 121.513,346.911 120.036 C 347.867 118.559,348.649 117.182,348.649 116.976 C 348.649 116.771,348.788 116.602,348.959 116.602 C 349.129 116.602,349.694 115.736,350.214 114.678 C 350.733 113.619,351.289 112.751,351.448 112.747 C 351.607 112.744,351.737 112.394,351.737 111.969 C 351.737 111.544,351.870 111.197,352.031 111.197 C 352.193 111.197,352.931 110.024,353.672 108.591 C 354.413 107.157,355.150 105.927,355.309 105.856 C 355.468 105.785,355.598 105.394,355.598 104.987 C 355.598 104.580,355.772 104.247,355.985 104.247 C 356.197 104.247,356.371 103.900,356.371 103.475 C 356.371 103.050,356.544 102.703,356.757 102.703 C 356.969 102.703,357.143 102.442,357.143 102.124 C 357.143 101.805,357.317 101.544,357.529 101.544 C 357.741 101.544,357.915 101.197,357.915 100.772 C 357.915 100.347,358.089 100.000,358.301 100.000 C 358.514 100.000,358.687 99.653,358.687 99.228 C 358.687 98.803,358.861 98.456,359.073 98.456 C 359.286 98.456,359.459 98.108,359.459 97.683 C 359.459 97.259,359.633 96.911,359.846 96.911 C 360.058 96.911,360.232 96.564,360.232 96.139 C 360.232 95.714,360.379 95.367,360.560 95.367 C 360.741 95.367,361.478 94.194,362.199 92.761 C 362.920 91.327,363.641 90.097,363.801 90.026 C 363.962 89.955,364.093 89.574,364.093 89.180 C 364.093 88.785,364.266 88.355,364.479 88.224 C 364.691 88.093,364.865 87.561,364.865 87.043 C 364.865 86.524,365.039 86.100,365.251 86.100 C 365.463 86.100,365.637 85.753,365.637 85.328 C 365.637 84.903,365.811 84.556,366.023 84.556 C 366.236 84.556,366.409 84.035,366.409 83.398 C 366.409 82.761,366.583 82.239,366.795 82.239 C 367.008 82.239,367.181 81.913,367.181 81.514 C 367.181 81.116,367.442 80.166,367.761 79.403 C 368.845 76.808,368.137 67.386,366.742 65.849 C 366.559 65.648,366.409 65.170,366.409 64.788 C 366.409 64.405,366.236 64.093,366.023 64.093 C 365.811 64.093,365.637 63.745,365.637 63.320 C 365.637 62.896,365.463 62.548,365.251 62.548 C 365.039 62.548,364.865 62.201,364.865 61.776 C 364.865 61.351,364.691 61.004,364.479 61.004 C 364.266 61.004,364.093 60.726,364.093 60.387 C 364.093 60.047,363.571 59.282,362.934 58.687 C 362.297 58.092,361.776 57.403,361.776 57.156 C 361.776 55.580,353.028 49.035,350.923 49.035 C 350.546 49.035,350.131 48.861,350.000 48.649 C 349.869 48.436,349.174 48.263,348.456 48.263 C 347.737 48.263,347.042 48.089,346.911 47.876 C 346.769 47.646,344.276 47.490,340.734 47.490 C 337.191 47.490,334.698 47.646,334.556 47.876 " stroke="none" fill="#12dea3" fill-rule="evenodd"></path><path id="path1" d="M39.672 48.527 C 38.983 48.709,38.717 49.421,39.337 49.421 C 39.525 49.421,39.778 49.725,39.899 50.097 C 40.021 50.468,40.657 51.641,41.313 52.703 C 41.969 53.764,42.605 54.937,42.726 55.309 C 42.848 55.681,43.101 55.985,43.288 55.985 C 43.476 55.985,43.629 56.149,43.629 56.349 C 43.629 56.708,49.076 66.233,49.713 66.988 C 49.892 67.201,50.464 68.156,50.984 69.112 C 51.505 70.068,52.017 70.936,52.124 71.042 C 52.505 71.424,53.720 73.566,53.930 74.228 C 54.048 74.599,54.298 74.903,54.485 74.903 C 54.673 74.903,54.826 75.251,54.826 75.676 C 54.826 76.100,55.000 76.448,55.212 76.448 C 55.425 76.448,55.598 76.676,55.598 76.954 C 55.598 77.233,55.946 77.834,56.371 78.289 C 56.795 78.745,57.143 79.386,57.143 79.714 C 57.143 80.041,57.273 80.310,57.432 80.312 C 57.592 80.314,57.913 80.704,58.147 81.181 C 59.288 83.504,60.454 85.534,60.714 85.650 C 60.874 85.721,61.004 86.010,61.004 86.293 C 61.004 86.577,61.134 86.866,61.293 86.937 C 61.453 87.008,62.189 88.238,62.930 89.672 C 63.671 91.105,64.410 92.278,64.571 92.278 C 64.733 92.278,64.865 92.455,64.865 92.670 C 64.865 93.010,66.130 95.197,71.859 104.755 C 72.471 105.778,72.973 106.702,72.973 106.809 C 72.973 106.916,73.494 107.761,74.131 108.687 C 74.768 109.613,75.290 110.557,75.290 110.784 C 75.290 111.011,75.431 111.197,75.604 111.197 C 75.776 111.197,76.156 111.805,76.448 112.548 C 76.740 113.292,77.087 113.900,77.220 113.900 C 77.353 113.900,77.701 114.508,77.992 115.251 C 78.284 115.994,78.644 116.602,78.792 116.602 C 78.939 116.602,79.157 116.906,79.275 117.278 C 79.485 117.940,80.699 120.081,81.081 120.463 C 81.542 120.924,82.239 122.432,82.239 122.968 C 82.239 123.289,82.384 123.552,82.560 123.552 C 82.737 123.552,83.122 124.030,83.417 124.614 C 83.712 125.198,84.436 126.402,85.027 127.290 C 85.617 128.177,86.100 128.996,86.100 129.110 C 86.100 129.329,89.085 134.405,90.551 136.680 C 91.030 137.423,91.851 138.813,92.375 139.768 C 94.243 143.176,95.081 144.609,95.798 145.619 C 96.198 146.183,96.525 146.835,96.525 147.067 C 96.525 147.300,96.658 147.490,96.820 147.490 C 96.982 147.490,97.411 148.142,97.774 148.938 C 98.436 150.395,99.641 152.537,100.000 152.896 C 100.382 153.278,101.596 155.420,101.806 156.081 C 101.924 156.453,102.174 156.757,102.362 156.757 C 102.549 156.757,102.703 157.104,102.703 157.529 C 102.703 157.954,102.876 158.301,103.089 158.301 C 103.301 158.301,103.475 158.529,103.475 158.808 C 103.475 159.086,103.822 159.687,104.247 160.143 C 104.672 160.599,105.019 161.239,105.019 161.567 C 105.019 161.894,105.193 162.162,105.405 162.162 C 105.618 162.162,105.792 162.510,105.792 162.934 C 105.792 163.359,105.938 163.707,106.117 163.707 C 106.296 163.707,106.861 164.532,107.372 165.541 C 107.883 166.549,108.431 167.432,108.591 167.503 C 108.750 167.574,108.880 167.760,108.880 167.916 C 108.880 168.073,109.966 170.037,111.293 172.282 C 112.621 174.527,114.177 177.208,114.753 178.240 C 116.107 180.668,117.132 182.383,117.375 182.625 C 117.562 182.813,117.743 183.122,119.387 186.057 C 119.816 186.824,120.495 187.913,120.895 188.477 C 121.294 189.040,121.622 189.692,121.622 189.924 C 121.622 190.157,121.795 190.347,122.008 190.347 C 122.220 190.347,122.398 190.565,122.402 190.830 C 122.407 191.096,122.751 191.747,123.166 192.278 C 123.581 192.809,123.925 193.547,123.930 193.919 C 123.934 194.291,124.112 194.595,124.324 194.595 C 124.537 194.595,124.710 194.855,124.710 195.174 C 124.710 195.492,124.852 195.753,125.024 195.753 C 125.197 195.753,125.577 196.361,125.869 197.104 C 126.160 197.847,126.508 198.456,126.641 198.456 C 126.774 198.456,127.122 199.064,127.413 199.807 C 127.705 200.550,128.085 201.158,128.257 201.158 C 128.430 201.158,128.571 201.419,128.571 201.737 C 128.571 202.056,128.704 202.317,128.866 202.317 C 129.029 202.317,129.458 202.968,129.820 203.764 C 130.483 205.221,131.688 207.363,132.046 207.722 C 132.236 207.912,132.499 208.361,134.054 211.153 C 134.482 211.921,134.963 212.722,135.125 212.934 C 135.286 213.147,135.855 214.116,136.390 215.088 C 138.033 218.076,138.409 218.719,138.629 218.919 C 138.745 219.025,139.349 219.981,139.970 221.042 C 140.592 222.104,141.414 223.494,141.796 224.131 C 142.179 224.768,142.595 225.594,142.720 225.965 C 142.845 226.337,143.101 226.641,143.288 226.641 C 143.476 226.641,143.629 226.909,143.629 227.236 C 143.629 227.564,143.977 228.205,144.402 228.660 C 144.826 229.116,145.174 229.717,145.174 229.996 C 145.174 230.274,145.347 230.502,145.560 230.502 C 145.772 230.502,145.946 230.849,145.946 231.274 C 145.946 231.699,146.120 232.046,146.332 232.046 C 146.544 232.046,146.718 232.292,146.718 232.593 C 146.718 232.894,146.848 233.198,147.008 233.269 C 147.167 233.340,147.716 234.223,148.227 235.232 C 148.738 236.240,149.303 237.066,149.482 237.066 C 149.661 237.066,149.807 237.413,149.807 237.838 C 149.807 238.263,149.960 238.610,150.148 238.610 C 150.336 238.610,150.586 238.914,150.703 239.286 C 150.919 239.966,152.142 242.112,152.519 242.471 C 152.630 242.577,153.151 243.489,153.677 244.498 C 154.202 245.507,154.762 246.332,154.922 246.332 C 155.082 246.332,155.212 246.680,155.212 247.104 C 155.212 247.529,155.374 247.876,155.572 247.876 C 155.770 247.876,156.035 248.200,156.161 248.596 C 156.287 248.992,157.601 251.356,159.083 253.850 C 160.564 256.343,161.776 258.459,161.776 258.551 C 161.776 258.644,162.124 259.093,162.548 259.548 C 162.973 260.004,163.320 260.605,163.320 260.884 C 163.320 261.162,163.494 261.390,163.707 261.390 C 163.919 261.390,164.093 261.737,164.093 262.162 C 164.093 262.587,164.266 262.934,164.479 262.934 C 164.691 262.934,164.865 263.162,164.865 263.441 C 164.865 263.719,165.212 264.320,165.637 264.776 C 166.062 265.232,166.409 265.858,166.409 266.168 C 166.409 266.478,166.540 266.789,166.699 266.860 C 166.858 266.931,167.407 267.814,167.918 268.822 C 168.429 269.831,168.994 270.656,169.173 270.656 C 169.352 270.656,169.498 271.004,169.498 271.429 C 169.498 271.853,169.652 272.201,169.839 272.201 C 170.027 272.201,170.283 272.505,170.408 272.876 C 170.641 273.570,171.286 274.711,172.973 277.413 C 174.659 280.115,175.305 281.256,175.538 281.950 C 175.663 282.321,175.919 282.625,176.107 282.625 C 176.294 282.625,176.448 282.802,176.448 283.019 C 176.448 283.235,177.143 284.556,177.992 285.954 C 178.842 287.352,179.537 288.578,179.537 288.678 C 179.537 288.779,180.319 290.070,181.274 291.547 C 182.230 293.024,183.012 294.331,183.012 294.451 C 183.012 294.570,183.339 295.130,183.738 295.693 C 184.815 297.212,186.489 300.097,186.742 300.869 C 186.863 301.240,187.116 301.544,187.304 301.544 C 187.491 301.544,187.645 301.892,187.645 302.317 C 187.645 302.741,187.798 303.089,187.986 303.089 C 188.173 303.089,188.423 303.393,188.541 303.764 C 188.751 304.426,189.966 306.568,190.347 306.950 C 190.729 307.332,191.944 309.474,192.154 310.135 C 192.272 310.507,192.522 310.811,192.709 310.811 C 192.897 310.811,193.050 311.158,193.050 311.583 C 193.050 312.008,193.224 312.355,193.436 312.355 C 193.649 312.355,193.822 312.703,193.822 313.127 C 193.822 313.552,193.964 313.900,194.137 313.900 C 194.310 313.900,194.801 314.551,195.228 315.347 C 196.367 317.472,197.079 318.700,197.297 318.919 C 197.485 319.107,197.666 319.415,199.309 322.350 C 199.739 323.117,200.418 324.206,200.817 324.770 C 201.217 325.334,201.544 325.906,201.544 326.041 C 201.544 326.177,201.726 326.497,201.948 326.754 C 202.170 327.010,203.498 329.305,204.899 331.853 C 206.300 334.402,207.552 336.573,207.681 336.680 C 208.054 336.987,209.293 339.124,209.528 339.865 C 209.646 340.236,209.896 340.541,210.084 340.541 C 210.271 340.541,210.425 340.888,210.425 341.313 C 210.425 341.737,210.579 342.085,210.767 342.085 C 210.955 342.085,211.397 342.693,211.750 343.436 C 212.528 345.075,213.565 345.192,214.305 343.726 C 214.600 343.142,215.286 341.969,215.830 341.120 C 216.374 340.270,217.074 339.059,217.386 338.427 C 217.698 337.796,219.062 335.450,220.416 333.215 C 221.770 330.979,223.222 328.542,223.643 327.799 C 224.063 327.056,224.543 326.274,224.710 326.062 C 224.878 325.849,225.364 325.048,225.791 324.281 C 227.347 321.489,227.610 321.039,227.799 320.849 C 227.905 320.743,228.383 319.918,228.861 319.015 C 229.339 318.113,230.121 316.636,230.598 315.734 C 231.076 314.831,231.554 314.006,231.660 313.900 C 231.766 313.793,232.070 313.316,232.336 312.838 C 232.601 312.360,233.036 311.578,233.301 311.100 C 233.567 310.623,233.871 310.145,233.977 310.039 C 234.083 309.932,234.387 309.455,234.653 308.977 C 234.918 308.499,235.352 307.717,235.618 307.239 C 235.883 306.762,236.187 306.284,236.293 306.178 C 236.400 306.071,236.704 305.594,236.969 305.116 C 237.235 304.638,237.669 303.856,237.934 303.378 C 238.200 302.901,238.524 302.423,238.655 302.317 C 238.785 302.210,239.247 301.429,239.680 300.579 C 240.523 298.925,244.559 291.965,245.063 291.296 C 245.726 290.417,246.777 288.573,246.980 287.934 C 247.098 287.563,247.315 287.259,247.463 287.259 C 247.611 287.259,247.971 286.651,248.263 285.907 C 248.554 285.164,248.934 284.556,249.107 284.556 C 249.280 284.556,249.421 284.295,249.421 283.977 C 249.421 283.658,249.554 283.398,249.716 283.398 C 249.878 283.398,250.307 282.746,250.669 281.950 C 251.385 280.376,252.569 278.301,252.927 277.992 C 253.050 277.886,253.396 277.235,253.697 276.544 C 253.997 275.854,254.341 275.290,254.462 275.290 C 254.583 275.290,254.921 274.681,255.212 273.938 C 255.504 273.195,255.884 272.587,256.057 272.587 C 256.229 272.587,256.371 272.326,256.371 272.008 C 256.371 271.689,256.544 271.429,256.757 271.429 C 256.969 271.429,257.143 271.081,257.143 270.656 C 257.143 270.232,257.317 269.884,257.529 269.884 C 257.741 269.884,257.915 269.656,257.915 269.378 C 257.915 269.099,258.263 268.498,258.687 268.043 C 259.112 267.587,259.459 267.126,259.459 267.018 C 259.459 266.649,263.088 260.811,263.397 260.682 C 263.567 260.611,263.707 260.220,263.707 259.813 C 263.707 259.406,263.837 259.072,263.996 259.070 C 264.155 259.069,264.477 258.678,264.711 258.202 C 265.513 256.568,266.988 253.861,267.182 253.668 C 267.289 253.562,267.622 252.997,267.923 252.413 C 268.224 251.829,268.615 251.351,268.791 251.351 C 268.968 251.351,269.112 251.004,269.112 250.579 C 269.112 250.154,269.286 249.807,269.498 249.807 C 269.710 249.807,269.884 249.546,269.884 249.228 C 269.884 248.909,270.058 248.649,270.270 248.649 C 270.483 248.649,270.656 248.301,270.656 247.876 C 270.656 247.452,270.830 247.104,271.042 247.104 C 271.255 247.104,271.429 246.795,271.429 246.417 C 271.429 246.039,271.776 245.480,272.201 245.174 C 272.625 244.868,272.973 244.430,272.973 244.200 C 272.973 243.557,273.903 241.705,274.228 241.702 C 274.387 241.700,274.517 241.351,274.517 240.927 C 274.517 240.502,274.691 240.154,274.903 240.154 C 275.605 240.154,275.304 238.419,274.517 237.927 C 274.093 237.662,273.745 237.132,273.745 236.749 C 273.745 236.366,273.398 235.680,272.973 235.224 C 272.548 234.768,272.201 234.142,272.201 233.832 C 272.201 233.522,272.070 233.211,271.911 233.140 C 271.549 232.979,269.112 229.855,269.112 229.552 C 269.112 229.430,268.417 228.186,267.568 226.788 C 266.718 225.389,266.023 224.082,266.023 223.882 C 266.023 223.683,265.847 223.310,265.632 223.053 C 265.072 222.387,263.324 219.708,262.527 218.296 C 262.154 217.635,261.615 216.679,261.330 216.173 C 261.044 215.666,260.724 215.164,260.618 215.058 C 260.236 214.676,259.021 212.534,258.811 211.873 C 258.694 211.501,258.476 211.197,258.328 211.197 C 258.180 211.197,257.821 210.589,257.529 209.846 C 257.237 209.102,256.857 208.494,256.685 208.494 C 256.512 208.494,256.371 208.234,256.371 207.915 C 256.371 207.597,256.197 207.336,255.985 207.336 C 255.772 207.336,255.598 207.068,255.598 206.741 C 255.598 206.413,255.251 205.772,254.826 205.316 C 254.402 204.861,254.054 204.260,254.054 203.981 C 254.054 203.703,253.880 203.475,253.668 203.475 C 253.456 203.475,253.282 203.127,253.282 202.703 C 253.282 202.278,253.108 201.931,252.896 201.931 C 252.683 201.931,252.510 201.670,252.510 201.351 C 252.510 201.033,252.379 200.772,252.220 200.771 C 252.061 200.770,251.496 199.815,250.965 198.649 C 250.434 197.482,249.870 196.527,249.710 196.526 C 249.551 196.526,249.421 196.339,249.421 196.112 C 249.421 195.885,248.900 194.941,248.263 194.015 C 247.625 193.090,247.104 192.146,247.104 191.919 C 247.104 191.692,246.973 191.506,246.812 191.506 C 246.652 191.506,246.272 190.941,245.969 190.251 C 245.666 189.561,244.476 187.432,243.325 185.521 C 242.174 183.610,240.946 181.546,240.597 180.935 C 240.247 180.324,239.427 179.021,238.775 178.039 C 238.122 177.058,237.341 175.690,237.040 175.000 C 236.738 174.310,236.392 173.745,236.271 173.745 C 236.150 173.745,235.813 173.137,235.521 172.394 C 235.230 171.651,234.850 171.042,234.677 171.042 C 234.504 171.042,234.363 170.782,234.363 170.463 C 234.363 170.145,234.222 169.884,234.049 169.884 C 233.876 169.884,233.496 169.276,233.205 168.533 C 232.913 167.790,232.566 167.181,232.432 167.181 C 232.299 167.181,231.952 166.573,231.660 165.830 C 231.369 165.087,230.989 164.479,230.816 164.479 C 230.643 164.479,230.502 164.233,230.502 163.932 C 230.502 163.631,230.372 163.327,230.212 163.256 C 230.053 163.185,229.532 162.389,229.054 161.486 C 228.576 160.584,227.794 159.107,227.317 158.205 C 226.839 157.302,226.361 156.477,226.255 156.371 C 225.873 155.989,224.658 153.847,224.449 153.185 C 224.331 152.814,224.081 152.510,223.893 152.510 C 223.706 152.510,223.552 152.333,223.552 152.117 C 223.552 151.900,222.831 150.554,221.949 149.124 C 221.068 147.695,219.905 145.743,219.366 144.788 C 218.827 143.832,218.288 142.963,218.170 142.857 C 218.051 142.751,217.532 141.882,217.017 140.927 C 216.502 139.971,215.981 139.102,215.859 138.996 C 215.737 138.890,215.273 138.108,214.828 137.259 C 213.746 135.194,212.483 132.986,211.702 131.794 C 210.597 130.109,209.640 128.404,209.404 127.703 C 209.279 127.331,209.055 127.027,208.907 127.027 C 208.759 127.027,208.400 126.419,208.108 125.676 C 207.816 124.932,207.469 124.324,207.336 124.324 C 207.203 124.324,206.855 123.716,206.564 122.973 C 206.272 122.230,205.912 121.622,205.764 121.622 C 205.617 121.622,205.399 121.318,205.281 120.946 C 205.071 120.283,203.856 118.141,203.474 117.761 C 203.368 117.654,203.020 117.046,202.702 116.409 C 202.384 115.772,200.516 112.583,198.552 109.323 C 196.588 106.063,194.981 103.339,194.981 103.270 C 194.981 103.202,194.155 101.786,193.147 100.125 C 192.138 98.464,191.066 96.626,190.765 96.042 C 190.464 95.458,190.073 94.981,189.896 94.981 C 189.720 94.981,189.575 94.633,189.575 94.208 C 189.575 93.784,189.402 93.436,189.189 93.436 C 188.977 93.436,188.803 93.176,188.803 92.857 C 188.803 92.539,188.662 92.278,188.489 92.278 C 188.316 92.278,187.936 91.670,187.645 90.927 C 187.353 90.183,187.006 89.575,186.873 89.575 C 186.740 89.575,186.392 88.967,186.100 88.224 C 185.809 87.481,185.471 86.873,185.350 86.873 C 185.229 86.873,184.886 86.308,184.587 85.618 C 184.289 84.928,183.551 83.637,182.949 82.749 C 182.346 81.861,181.849 80.993,181.845 80.818 C 181.840 80.644,181.496 80.068,181.081 79.537 C 180.666 79.006,180.322 78.300,180.317 77.969 C 180.313 77.637,179.976 77.008,179.569 76.571 C 179.162 76.135,178.378 74.929,177.828 73.892 C 177.277 72.856,176.112 70.878,175.238 69.498 C 173.392 66.582,172.399 64.891,171.273 62.741 C 170.827 61.892,170.250 60.972,169.990 60.696 C 169.730 60.421,169.218 59.552,168.852 58.766 C 168.486 57.979,168.091 57.249,167.974 57.143 C 167.600 56.805,166.370 54.658,166.147 53.958 C 166.030 53.586,165.780 53.282,165.592 53.282 C 165.404 53.282,165.251 53.014,165.251 52.686 C 165.251 52.359,165.074 51.881,164.858 51.625 C 164.642 51.368,164.071 50.550,163.588 49.807 L 162.711 48.456 101.529 48.402 C 67.879 48.373,40.043 48.429,39.672 48.527 " stroke="none" fill="#000000" fill-rule="evenodd"></path></g></svg>